<svg xmlns="http://www.w3.org/2000/svg" width="2000.8414" height="2000.8416" viewBox="0 0 2000.8414 2000.8416"><defs><clipPath id="a" clipPathUnits="userSpaceOnUse"><path d="M-607.99 161.374H233.9v-595.28h-841.89Z"/></clipPath><clipPath id="b" clipPathUnits="userSpaceOnUse"><path d="M-466.834 119.253h841.89v-595.28h-841.89Z"/></clipPath><clipPath id="c" clipPathUnits="userSpaceOnUse"><path d="M-544.172 136.507h841.89v-595.28h-841.89Z"/></clipPath><clipPath id="d" clipPathUnits="userSpaceOnUse"><path d="M-517.377 113.912h841.89v-595.28h-841.89Z"/></clipPath><clipPath id="e" clipPathUnits="userSpaceOnUse"><path d="M-532.2 139.67h841.89v-595.28H-532.2Z"/></clipPath><clipPath id="f" clipPathUnits="userSpaceOnUse"><path d="M-548.616 140.248h841.89v-595.28h-841.89Z"/></clipPath><clipPath id="g" clipPathUnits="userSpaceOnUse"><path d="M-526.747 140.703h841.89v-595.28h-841.89Z"/></clipPath><clipPath id="h" clipPathUnits="userSpaceOnUse"><path d="M-481.111 119.643h841.89v-595.28h-841.89Z"/></clipPath><clipPath id="i" clipPathUnits="userSpaceOnUse"><path d="M-532.466 145.75h841.89v-595.28h-841.89Z"/></clipPath><clipPath id="j" clipPathUnits="userSpaceOnUse"><path d="M-526.745 140.701h841.89v-595.28h-841.89Z"/></clipPath><clipPath id="k" clipPathUnits="userSpaceOnUse"><path d="M-509.757 229.676h841.89v-595.28h-841.89Z"/></clipPath><clipPath id="l" clipPathUnits="userSpaceOnUse"><path d="M-455.924 218.24h841.89v-595.28h-841.89Z"/></clipPath><clipPath id="m" clipPathUnits="userSpaceOnUse"><path d="M-571.504 213.068h841.89v-595.28h-841.89Z"/></clipPath><clipPath id="n" clipPathUnits="userSpaceOnUse"><path d="M-573.466 219.458h841.89v-595.28h-841.89Z"/></clipPath><clipPath id="o" clipPathUnits="userSpaceOnUse"><path d="M-466.099 229.163h841.89v-595.28h-841.89Z"/></clipPath><clipPath id="p" clipPathUnits="userSpaceOnUse"><path d="M-462.103 234.528h841.89v-595.28h-841.89Z"/></clipPath><clipPath id="q" clipPathUnits="userSpaceOnUse"><path d="M-542.668 229.08h841.89V-366.2h-841.89Z"/></clipPath><clipPath id="r" clipPathUnits="userSpaceOnUse"><path d="M-559.568 227.62h841.89v-595.28h-841.89Z"/></clipPath><clipPath id="s" clipPathUnits="userSpaceOnUse"><path d="M-554.031 232.608h841.89v-595.28h-841.89Z"/></clipPath><clipPath id="t" clipPathUnits="userSpaceOnUse"><path d="M-554.682 229.317h841.89v-595.28h-841.89Z"/></clipPath><clipPath id="u" clipPathUnits="userSpaceOnUse"><path d="M-511.296 241.461h841.89v-595.28h-841.89Z"/></clipPath><clipPath id="v" clipPathUnits="userSpaceOnUse"><path d="M-512.263 244.198h841.89v-595.28h-841.89Z"/></clipPath><clipPath id="w" clipPathUnits="userSpaceOnUse"><path d="M-484.787 232.531h841.89v-595.28h-841.89Z"/></clipPath><clipPath id="x" clipPathUnits="userSpaceOnUse"><path d="M-477.789 234.304h841.89v-595.28h-841.89Z"/></clipPath><clipPath id="y" clipPathUnits="userSpaceOnUse"><path d="M-475.036 238.071h841.89v-595.28h-841.89Z"/></clipPath><clipPath id="z" clipPathUnits="userSpaceOnUse"><path d="M-498.42 240.071h841.89v-595.28h-841.89Z"/></clipPath><clipPath id="A" clipPathUnits="userSpaceOnUse"><path d="M-527.169 241.11h841.89v-595.28h-841.89Z"/></clipPath><clipPath id="B" clipPathUnits="userSpaceOnUse"><path d="M-527.348 247.374h841.89v-595.28h-841.89Z"/></clipPath><clipPath id="C" clipPathUnits="userSpaceOnUse"><path d="M-577.065 204.695h841.89v-595.28h-841.89Z"/></clipPath><clipPath id="D" clipPathUnits="userSpaceOnUse"><path d="M-442.163 204.695h841.89v-595.28h-841.89Z"/></clipPath><clipPath id="E" clipPathUnits="userSpaceOnUse"><path d="M-441.385 196.6h841.89v-595.28h-841.89Z"/></clipPath><clipPath id="F" clipPathUnits="userSpaceOnUse"><path d="M-430.069 190.339h841.89v-595.28h-841.89Z"/></clipPath><clipPath id="G" clipPathUnits="userSpaceOnUse"><path d="M-427.868 183.232h841.89v-595.28h-841.89Z"/></clipPath><clipPath id="H" clipPathUnits="userSpaceOnUse"><path d="M-433.248 169.493h841.89v-595.28h-841.89Z"/></clipPath><clipPath id="I" clipPathUnits="userSpaceOnUse"><path d="M-425.552 164.103h841.89v-595.28h-841.89Z"/></clipPath><clipPath id="J" clipPathUnits="userSpaceOnUse"><path d="M-433.262 153.635h841.89v-595.28h-841.89Z"/></clipPath><clipPath id="K" clipPathUnits="userSpaceOnUse"><path d="M-431.565 142.747h841.89v-595.28h-841.89Z"/></clipPath><clipPath id="L" clipPathUnits="userSpaceOnUse"><path d="M-429.86 133.347h841.89v-595.28h-841.89Z"/></clipPath><clipPath id="M" clipPathUnits="userSpaceOnUse"><path d="M-439.894 129.415h841.89v-595.28h-841.89Z"/></clipPath><clipPath id="N" clipPathUnits="userSpaceOnUse"><path d="M-435.628 120.372h841.89v-595.28h-841.89Z"/></clipPath><clipPath id="O" clipPathUnits="userSpaceOnUse"><path d="M-446.203 118.168h841.89v-595.28h-841.89Z"/></clipPath><clipPath id="P" clipPathUnits="userSpaceOnUse"><path d="M-447.764 104.424h841.89v-595.28h-841.89Z"/></clipPath><clipPath id="Q" clipPathUnits="userSpaceOnUse"><path d="M-461.225 101.803h841.89v-595.28h-841.89Z"/></clipPath><clipPath id="R" clipPathUnits="userSpaceOnUse"><path d="M-465.064 97.151h841.89v-595.28h-841.89Z"/></clipPath><clipPath id="S" clipPathUnits="userSpaceOnUse"><path d="M-474.305 93.26h841.89v-595.28h-841.89Z"/></clipPath><clipPath id="T" clipPathUnits="userSpaceOnUse"><path d="M-482.7 89.54h841.89v-595.28H-482.7Z"/></clipPath><clipPath id="U" clipPathUnits="userSpaceOnUse"><path d="M-488.968 78.065h841.89v-595.28h-841.89Z"/></clipPath><clipPath id="V" clipPathUnits="userSpaceOnUse"><path d="M-498.415 85.41h841.89v-595.28h-841.89Z"/></clipPath><clipPath id="W" clipPathUnits="userSpaceOnUse"><path d="M-503.947 80.053h841.89v-595.28h-841.89Z"/></clipPath><clipPath id="X" clipPathUnits="userSpaceOnUse"><path d="M-512.185 83.435h841.89v-595.28h-841.89Z"/></clipPath><clipPath id="Y" clipPathUnits="userSpaceOnUse"><path d="M-516.524 84.942h841.89v-595.28h-841.89Z"/></clipPath><clipPath id="Z" clipPathUnits="userSpaceOnUse"><path d="M-522.296 85.682h841.89v-595.28h-841.89Z"/></clipPath><clipPath id="aa" clipPathUnits="userSpaceOnUse"><path d="M-535.598 79.595h841.89v-595.28h-841.89Z"/></clipPath><clipPath id="ab" clipPathUnits="userSpaceOnUse"><path d="M-541.898 86.732h841.89v-595.28h-841.89Z"/></clipPath><clipPath id="ac" clipPathUnits="userSpaceOnUse"><path d="M-548.597 95.194h841.89v-595.28h-841.89Z"/></clipPath><clipPath id="ad" clipPathUnits="userSpaceOnUse"><path d="M-559.05 102.56h841.89v-595.28h-841.89Z"/></clipPath><clipPath id="ae" clipPathUnits="userSpaceOnUse"><path d="M-568.538 100.536h841.89v-595.28h-841.89Z"/></clipPath><clipPath id="af" clipPathUnits="userSpaceOnUse"><path d="M-575.646 109.102h841.89v-595.28h-841.89Z"/></clipPath><clipPath id="ag" clipPathUnits="userSpaceOnUse"><path d="M-573.95 119.287h841.89v-595.28h-841.89Z"/></clipPath><clipPath id="ah" clipPathUnits="userSpaceOnUse"><path d="M-582.684 124.272h841.89v-595.28h-841.89Z"/></clipPath><clipPath id="ai" clipPathUnits="userSpaceOnUse"><path d="M-589.04 131.833h841.89v-595.28h-841.89Z"/></clipPath><clipPath id="aj" clipPathUnits="userSpaceOnUse"><path d="M-592.14 141.87h841.89v-595.28h-841.89Z"/></clipPath><clipPath id="ak" clipPathUnits="userSpaceOnUse"><path d="M-593.547 149.44h841.89v-595.28h-841.89Z"/></clipPath><clipPath id="al" clipPathUnits="userSpaceOnUse"><path d="M-594.35 159.108h841.89v-595.28h-841.89Z"/></clipPath><clipPath id="am" clipPathUnits="userSpaceOnUse"><path d="M-589.941 166.162h841.89v-595.28h-841.89Z"/></clipPath><clipPath id="an" clipPathUnits="userSpaceOnUse"><path d="M-593.263 175.121h841.89v-595.28h-841.89Z"/></clipPath><clipPath id="ao" clipPathUnits="userSpaceOnUse"><path d="M-584.068 180.756h841.89v-595.28h-841.89Z"/></clipPath><clipPath id="ap" clipPathUnits="userSpaceOnUse"><path d="M-589.858 188.89h841.89v-595.28h-841.89Z"/></clipPath><clipPath id="aq" clipPathUnits="userSpaceOnUse"><path d="M-579.925 192.709h841.89v-595.28h-841.89Z"/></clipPath></defs><path d="M0 0c0-54.256-43.983-98.24-98.24-98.24S-196.48-54.256-196.48 0s43.984 98.24 98.24 98.24C-43.983 98.24 0 54.256 0 0" clip-path="url(#a)" style="fill:#fff;fill-opacity:1;fill-rule:nonzero;stroke:none" transform="matrix(10.18344 0 0 -10.18344 2000.841 1000.42)"/><path d="M0 0v-47.201c0-3.921.745-10.087 4.293-17.198l.12-.244c5.855-11.931 17.43-23.82 34.403-35.336 1.276-.872 3.256-2.008 4.101-2.485.845.477 2.825 1.613 4.099 2.483 16.975 11.518 28.55 23.408 34.406 35.342l.12.241c3.547 7.111 4.292 13.277 4.292 17.197V0L42.917 11.704Zm42.917-104.374-.404.224c-.119.066-2.923 1.623-4.635 2.792-6.415 4.353-25.943 17.602-34.963 35.984l-.114.231c-3.693 7.401-4.468 13.842-4.468 17.942V1.273l44.584 12.159L87.501 1.273v-48.474c0-4.099-.775-10.54-4.467-17.941l-.113-.228c-9.022-18.386-28.55-31.635-34.967-35.989-1.71-1.168-4.514-2.725-4.633-2.79z" clip-path="url(#b)" style="fill:#861a10;fill-opacity:1;fill-rule:nonzero;stroke:none" transform="matrix(10.18344 0 0 -10.18344 563.38 571.483)"/><path d="M0 0c-7.001 12.901-18.245 19.703-20.123 20.775l-4.729 1.29c.737-.951 5.882-7.88 10.278-21.104C-6.03 1.143-1.103.232 0 0" clip-path="url(#c)" style="fill:#861a10;fill-opacity:1;fill-rule:nonzero;stroke:none" transform="matrix(10.18344 0 0 -10.18344 1350.949 747.184)"/><path d="m0 0-7.627 2.08-15.444-4.212C-10.229-6.693-.167-12.85 7.627-19.225 5.811-12.433 3.333-5.895 0 0" clip-path="url(#d)" style="fill:#861a10;fill-opacity:1;fill-rule:nonzero;stroke:none" transform="matrix(10.18344 0 0 -10.18344 1078.088 517.091)"/><path d="M0 0c10.581-10.676 15.254-20.637 16.416-23.38v14.877a46 46 0 0 1-3.439 9.71C8.701 1.141 4.348.709 0 0" clip-path="url(#e)" style="fill:#861a10;fill-opacity:1;fill-rule:nonzero;stroke:none" transform="matrix(10.18344 0 0 -10.18344 1229.035 779.393)"/><path d="M0 0v17.816l-21.397 5.836C-6.61 14.947-1.228 3.165 0 0" clip-path="url(#f)" style="fill:#861a10;fill-opacity:1;fill-rule:nonzero;stroke:none" transform="matrix(10.18344 0 0 -10.18344 1396.204 785.281)"/><path d="m0 0-.002.001c-27.366-5.842-53.085-21.174-55.86-22.861v-2.587c0-8.263 3.526-14.849 3.995-15.818 7.72-15.731 24.467-28.199 30.812-32.504 1.51-1.031 4.059-2.444 4.059-2.444s2.548 1.413 4.059 2.444A123 123 0 0 1 .492-63.156C1.519-56.412 5.357-27.35 0 0" clip-path="url(#g)" style="fill:#861a10;fill-opacity:1;fill-rule:nonzero;stroke:none" transform="matrix(10.18344 0 0 -10.18344 1173.503 789.914)"/><path d="m0 0-10.226-2.789v-26.004c20.824 7.889 37.454 11.16 49.595 12.338C21.517-4.474 2.546-.494 0 0" clip-path="url(#h)" style="fill:#861a10;fill-opacity:1;fill-rule:nonzero;stroke:none" transform="matrix(10.18344 0 0 -10.18344 708.773 575.45)"/><path d="M0 0c2.959-12.68 4.714-29.283 2.777-49.961 3.617 4.156 6.946 8.787 9.378 13.744.408.841 3.121 5.923 3.826 12.659C12.206-14.088 6.515-6.328 0 0" clip-path="url(#i)" style="fill:#861a10;fill-opacity:1;fill-rule:nonzero;stroke:none" transform="matrix(10.18344 0 0 -10.18344 1231.741 841.312)"/><path d="m0 0 .002-.001V0z" clip-path="url(#j)" style="fill:#861a10;fill-opacity:1;fill-rule:nonzero;stroke:none" transform="matrix(10.18344 0 0 -10.18344 1173.484 789.899)"/><path d="M0 0c-37.722 0-68.311 30.577-68.311 68.3 0 37.728 30.589 68.309 68.311 68.309S68.298 106.028 68.298 68.3C68.298 30.577 37.722 0 0 0m0 162.696c-52.136 0-94.404-42.266-94.404-94.411 0-52.12 42.268-94.378 94.404-94.378 52.12 0 94.392 42.258 94.392 94.378 0 52.145-42.272 94.411-94.392 94.411" clip-path="url(#k)" style="fill:#861a10;fill-opacity:1;fill-rule:nonzero;stroke:none" transform="matrix(10.18344 0 0 -10.18344 1000.483 1695.965)"/><path d="m0 0 2.129 1.995-6.323 6.743-.895-.838 4.841-5.164-1.273-1.195a14 14 0 0 0-.842-.72A3.7 3.7 0 0 0-3.21.319l-5.679 6.057-.895-.838 3.429-3.66-1.55-1.454-2.453 2.613-.89-.834 4.85-5.173-2.622-2.462 1.478-1.576 3.518 3.299-2.401 2.556 1.55 1.452 3.486-3.715.898.836-1.422 1.518q.356.044.93.356.575.32.983.706" clip-path="url(#l)" style="fill:#fff;fill-opacity:1;fill-rule:nonzero;stroke:none" transform="matrix(10.18344 0 0 -10.18344 452.278 1579.5)"/><path d="m0 0-3.779 3.531-6.562-7.03.902-.84 5.093 5.457 2.764-2.577C-.85-2.142-.27-2.722.162-3.21q.653-.725.875-1.506l1.304 1.398c-.132.483-.39 1-.775 1.56C1.176-1.2.66-.614 0 0" clip-path="url(#m)" style="fill:#fff;fill-opacity:1;fill-rule:nonzero;stroke:none" transform="matrix(10.18344 0 0 -10.18344 1629.284 1526.84)"/><path d="m0 0-3.924 3.664-1.426-1.528 3.92-3.661-.741-.791-3.917 3.657-1.427-1.527 3.921-3.662-1.455-1.557.902-.842L3.97 2.449l-.904.841Z" clip-path="url(#n)" style="fill:#fff;fill-opacity:1;fill-rule:nonzero;stroke:none" transform="matrix(10.18344 0 0 -10.18344 1649.26 1591.91)"/><path d="M0 0q-.408.096-.94.351a7.6 7.6 0 0 0-1.093.65l-3.413 2.43.843 1.187 3.764-2.677 2.433 3.422-5.649 4.017-.714-1.003 3.885-2.766L-1.9 4.187l-3.764 2.676-1.439-2.021q-.38-.533-.271-1.074c.076-.366.294-.679.666-.943L-2.853.084a5 5 0 0 1 1.18-.639A4.5 4.5 0 0 1-.586-.82l-.539-.757L.644-2.83l4.232 5.951-1.767 1.258Z" clip-path="url(#o)" style="fill:#fff;fill-opacity:1;fill-rule:nonzero;stroke:none" transform="matrix(10.18344 0 0 -10.18344 555.897 1690.739)"/><path d="m0 0-3.696 2.63.796 1.121 3.697-2.63Zm1.507 2.118-3.696 2.627.804 1.134-1.766 1.256-2.186-3.073q-.366-.517-.256-1.09c.068-.38.288-.707.656-.965l5.988-4.26 3.024 4.248L2.31 3.249Z" clip-path="url(#p)" style="fill:#fff;fill-opacity:1;fill-rule:nonzero;stroke:none" transform="matrix(10.18344 0 0 -10.18344 515.21 1745.379)"/><path d="m0 0 1.394-3.197-1.186-.516-1.39 3.196-1.887-.822 2.742-6.309a4.057 4.057 0 0 0-1.368-.922l-1.996-.867-2.372 5.453 2.471 1.075-.49 1.132-4.442-1.934 2.79-6.414q.257-.599.789-.788c.348-.131.732-.101 1.15.081l2.514 1.092q.542.235.874.535c.219.196.391.386.506.574l2.094-4.815 1.891.823L.698-4.846l1.186.519 3.385-7.783 1.889.82L1.892.818z" clip-path="url(#q)" style="fill:#fff;fill-opacity:1;fill-rule:nonzero;stroke:none" transform="matrix(10.18344 0 0 -10.18344 1335.636 1689.891)"/><path d="m0 0 1.774 1.254-2.175 3.081 1.777 1.256-.711 1.007-1.779-1.255-1.498 2.124-1.777-1.253Z" clip-path="url(#r)" style="fill:#fff;fill-opacity:1;fill-rule:nonzero;stroke:none" transform="matrix(10.18344 0 0 -10.18344 1507.738 1675.02)"/><path d="m0 0 .712-1.011 6.043 4.268L8.76.414l1.781 1.256-2.72 3.852Z" clip-path="url(#s)" style="fill:#fff;fill-opacity:1;fill-rule:nonzero;stroke:none" transform="matrix(10.18344 0 0 -10.18344 1451.351 1725.827)"/><path d="M0 0c-.632-.448-1.609-.148-2.186.668-.575.816-.532 1.838.101 2.284.634.444 1.611.143 2.188-.669C.675 1.466.633.442 0 0m1.836 3.503C1.281 4.29.411 4.729-.522 4.797l1.223.864-.693.983-2.253-1.589-.717 1.014-1.775-1.253.716-1.018-2.252-1.59.697-.983 1.227.868c-.247-.9-.125-1.866.427-2.651 1.035-1.46 3.159-1.734 4.749-.615C2.413-.05 2.864 2.043 1.836 3.503" clip-path="url(#t)" style="fill:#fff;fill-opacity:1;fill-rule:nonzero;stroke:none" transform="matrix(10.18344 0 0 -10.18344 1457.98 1692.313)"/><path d="M0 0h-2.073v-5.335h-1.081V0h-2.077v-5.335h-2.12v-1.224H4.47v1.224H0Z" clip-path="url(#u)" style="fill:#fff;fill-opacity:1;fill-rule:nonzero;stroke:none" transform="matrix(10.18344 0 0 -10.18344 1016.16 1815.979)"/><path d="M0 0q-.085-.967-.505-1.661H1.4c.257.424.462.965.606 1.624q.213.986.214 2.327v4.987h-9.555V6.052H.088V2.448Q.087.962 0 0" clip-path="url(#v)" style="fill:#fff;fill-opacity:1;fill-rule:nonzero;stroke:none" transform="matrix(10.18344 0 0 -10.18344 1026.007 1843.853)"/><path d="m0 0-2.004.851-3.809-8.959 1.999-.856 2.313 5.435 2.003-.85.483 1.136-2.005.85z" clip-path="url(#w)" style="fill:#fff;fill-opacity:1;fill-rule:nonzero;stroke:none" transform="matrix(10.18344 0 0 -10.18344 746.208 1725.04)"/><path d="M0 0c-.389-.919-1.284-1.42-1.995-1.117-.712.305-.971 1.294-.581 2.211.392.919 1.285 1.42 1.996 1.117C.13 1.912.391.92 0 0m3.661 2.376L1.123 3.452l.486 1.146-2.001.849-.486-1.141-2.535 1.079-.474-1.11 1.388-.59c-.896-.263-1.653-.875-2.03-1.759-.7-1.646.186-3.596 1.973-4.359 1.79-.761 3.805-.044 4.508 1.601.376.885.291 1.857-.142 2.686l1.379-.586Z" clip-path="url(#x)" style="fill:#fff;fill-opacity:1;fill-rule:nonzero;stroke:none" transform="matrix(10.18344 0 0 -10.18344 674.944 1743.099)"/><path d="m0 0-1.989.846-1.118-2.625q-.259-.61-.019-1.138.239-.522.834-.776l6.9-2.934.479 1.128-6.288 2.674z" clip-path="url(#y)" style="fill:#fff;fill-opacity:1;fill-rule:nonzero;stroke:none" transform="matrix(10.18344 0 0 -10.18344 646.907 1781.456)"/><path d="M0 0c.184.393.319.776.393 1.142l.588 2.861-9.055 1.857-.248-1.202 6.935-1.423-.353-1.714a12 12 0 0 0-.272-1.07 3.8 3.8 0 0 0-.4-.9l-8.132 1.669-.248-1.203 4.911-1.006-.427-2.081-3.511.717-.245-1.197 6.947-1.424-.72-3.525 2.118-.436.966 4.724-3.437.707.43 2.078 4.995-1.022.247 1.201-2.038.42Q-.289-.59 0 0" clip-path="url(#z)" style="fill:#fff;fill-opacity:1;fill-rule:nonzero;stroke:none" transform="matrix(10.18344 0 0 -10.18344 885.038 1801.825)"/><path d="m0 0-.201.972 3.688.755L3.25 2.9l-7.12-1.457-.174.846L2.86 3.706l-.24 1.171-6.903-1.415-.181.875 6.978 1.432-.24 1.181-9.098-1.861.791-3.867q.132-.635.61-.932.478-.287 1.14-.152l1.965.402.201-.975-4.943-1.01.242-1.187L5.188-.176l-.245 1.185z" clip-path="url(#A)" style="fill:#fff;fill-opacity:1;fill-rule:nonzero;stroke:none" transform="matrix(10.18344 0 0 -10.18344 1177.8 1812.397)"/><path d="M0 0c-.77-.158-1.532.422-1.711 1.298-.179.87.293 1.706 1.063 1.864.764.157 1.529-.425 1.709-1.299C1.242.991.765.157 0 0m-.904 4.411c-1.928-.395-3.23-1.984-2.911-3.545.321-1.565 2.142-2.513 4.072-2.118C2.182-.86 3.483.727 3.166 2.29c-.321 1.568-2.144 2.515-4.07 2.121" clip-path="url(#B)" style="fill:#fff;fill-opacity:1;fill-rule:nonzero;stroke:none" transform="matrix(10.18344 0 0 -10.18344 1179.626 1876.187)"/><path d="M0 0a1.984 1.984 0 0 1-2.025-1.94A1.983 1.983 0 0 1-.087-3.961a1.984 1.984 0 0 1 2.023 1.935A1.986 1.986 0 0 1 0 0" clip-path="url(#C)" style="fill:#fff;fill-opacity:1;fill-rule:nonzero;stroke:none" transform="matrix(10.18344 0 0 -10.18344 1685.912 1441.57)"/><path d="M0 0a1.983 1.983 0 0 1-1.935-2.026A1.984 1.984 0 0 1 .087-3.961 1.983 1.983 0 0 1 2.026-1.94 1.987 1.987 0 0 1 0 0" clip-path="url(#D)" style="fill:#fff;fill-opacity:1;fill-rule:nonzero;stroke:none" transform="matrix(10.18344 0 0 -10.18344 312.147 1441.57)"/><path d="m0 0-2.513-1.226-1.551.377 2.407 4.245-.692 1.417-2.933-5.295-5.167 1.328.719-1.473 5.442-1.34.049-.102-3.867-1.887.573-1.172L.572-1.172z" clip-path="url(#E)" style="fill:#fff;fill-opacity:1;fill-rule:nonzero;stroke:none" transform="matrix(10.18344 0 0 -10.18344 304.229 1359.132)"/><path d="M0 0a2.3 2.3 0 0 0-.084 1.384q.171.682.774 1.255.603.571 1.608.937t1.835.315q.83-.05 1.399-.464.57-.413.825-1.114.256-.706.085-1.387-.172-.68-.775-1.252-.602-.572-1.608-.938t-1.835-.315-1.398.462A2.3 2.3 0 0 0 0 0m4.502-2.482Q5.826-2 6.642-1.175q.814.826 1.044 1.844T7.532 2.74q-.381 1.049-1.211 1.682t-1.984.744-2.482-.372Q.526 4.311-.29 3.483q-.816-.829-1.041-1.845-.227-1.017.156-2.066Q-.793-1.48.034-2.114q.825-.636 1.983-.743 1.156-.108 2.485.375" clip-path="url(#F)" style="fill:#fff;fill-opacity:1;fill-rule:nonzero;stroke:none" transform="matrix(10.18344 0 0 -10.18344 188.99 1295.378)"/><path d="m0 0-.39 1.58q-.148.603-.055 1.041.095.438.408.707.315.27.819.395.504.124.893.028.39-.096.669-.438.279-.34.429-.948L3.164.781Zm7.615 1.88L4.31 1.064l-.422 1.71-.022.072 2.89 2.511-.355 1.442-3.085-2.716c-.051.072-.101.145-.157.209q-.495.57-1.182.739-.688.168-1.51-.034-.82-.203-1.359-.676a2.3 2.3 0 0 1-.722-1.209q-.184-.735.049-1.679l.736-2.981L7.928.614z" clip-path="url(#G)" style="fill:#fff;fill-opacity:1;fill-rule:nonzero;stroke:none" transform="matrix(10.18344 0 0 -10.18344 166.58 1223.01)"/><path d="m0 0-1.169-.166.582-4.094-2.721-.387-.535 3.771-1.165-.166.536-3.77-2.707-.385-.576 4.049-1.168-.166.758-5.34 8.93 1.268z" clip-path="url(#H)" style="fill:#fff;fill-opacity:1;fill-rule:nonzero;stroke:none" transform="matrix(10.18344 0 0 -10.18344 221.361 1083.097)"/><path d="m0 0-.002.067 3.8 1.378.079-2.591zm7.442-2.2-2.405.711-.101 3.347 2.357.855-.041 1.388L-1.67.743l.045-1.514 9.109-2.813Z" clip-path="url(#I)" style="fill:#fff;fill-opacity:1;fill-rule:nonzero;stroke:none" transform="matrix(10.18344 0 0 -10.18344 142.994 1028.207)"/><path d="m0 0-6.532.86.01.079L.579 4.395l.156 1.19-8.942 1.177-.168-1.28 6.545-.862-.011-.079-7.113-3.455-.158-1.202L-.17-1.293Z" clip-path="url(#J)" style="fill:#fff;fill-opacity:1;fill-rule:nonzero;stroke:none" transform="matrix(10.18344 0 0 -10.18344 221.5 921.603)"/><path d="m0 0-3.406 2.178.017.065 4.034.268zm3.132-2.003L1.019-.652l.833 3.244 2.503.166.345 1.345-9.504-.748-.376-1.466 7.968-5.233Z" clip-path="url(#K)" style="fill:#fff;fill-opacity:1;fill-rule:nonzero;stroke:none" transform="matrix(10.18344 0 0 -10.18344 204.228 810.729)"/><path d="m0 0 7.375-2.657.442 1.227L.442 1.227l.906 2.514-1.111.4-2.256-6.262 1.11-.401z" clip-path="url(#L)" style="fill:#fff;fill-opacity:1;fill-rule:nonzero;stroke:none" transform="matrix(10.18344 0 0 -10.18344 186.868 715.004)"/><path d="m0 0-8.232 3.687-.533-1.191L-.533-1.19Z" clip-path="url(#M)" style="fill:#fff;fill-opacity:1;fill-rule:nonzero;stroke:none" transform="matrix(10.18344 0 0 -10.18344 289.04 674.966)"/><path d="M0 0q.362.653.989.972.627.32 1.454.24.827-.079 1.763-.597.937-.518 1.443-1.177t.568-1.36a2.32 2.32 0 0 0-.298-1.354 2.32 2.32 0 0 0-.99-.974q-.626-.318-1.454-.238-.827.078-1.763.597Q.776-3.373.27-2.714q-.507.659-.57 1.358T0 0m1.085-5.025q1.233-.683 2.39-.755 1.158-.074 2.077.423.918.495 1.461 1.475.54.977.472 2.018Q7.418-.822 6.744.121t-1.91 1.628-2.398.757q-1.16.071-2.075-.426-.915-.498-1.455-1.474-.543-.98-.479-2.02t.742-1.983q.679-.944 1.916-1.628" clip-path="url(#N)" style="fill:#fff;fill-opacity:1;fill-rule:nonzero;stroke:none" transform="matrix(10.18344 0 0 -10.18344 245.597 582.873)"/><path d="m0 0-5.34 3.859.047.065 7.89-.331.703.972-7.31 5.284-.757-1.047 5.35-3.868-.046-.064-7.901.339-.71-.983 7.31-5.283z" clip-path="url(#O)" style="fill:#fff;fill-opacity:1;fill-rule:nonzero;stroke:none" transform="matrix(10.18344 0 0 -10.18344 353.293 560.431)"/><path d="m0 0 .046.049 3.679-1.674-1.757-1.906Zm3.778-6.779-1.221 2.19 2.269 2.463 2.283-1.039.941 1.021-8.724 3.843L-1.7.586l4.539-8.383Z" clip-path="url(#P)" style="fill:#fff;fill-opacity:1;fill-rule:nonzero;stroke:none" transform="matrix(10.18344 0 0 -10.18344 369.19 420.47)"/><path d="m0 0-.776.889-2.929-2.558-5.156 5.905-.983-.858 5.933-6.793Z" clip-path="url(#Q)" style="fill:#fff;fill-opacity:1;fill-rule:nonzero;stroke:none" transform="matrix(10.18344 0 0 -10.18344 506.267 393.78)"/><path d="M0 0a2.95 2.95 0 0 1 1.629-.324q.877.068 1.733.614t1.287 1.312q.432.766.395 1.615t-.543 1.644L1.313 9.859.207 9.153l3.128-4.905a2.3 2.3 0 0 0 .369-1.05 1.84 1.84 0 0 0-.216-1.023q-.258-.486-.799-.831A2.2 2.2 0 0 0 1.603.973a1.88 1.88 0 0 0-1.022.233 2.25 2.25 0 0 0-.8.775l-3.128 4.905-1.1-.701 3.187-4.998Q-.753.392 0 0" clip-path="url(#R)" style="fill:#fff;fill-opacity:1;fill-rule:nonzero;stroke:none" transform="matrix(10.18344 0 0 -10.18344 545.364 346.41)"/><path d="m0 0-2.875 5.928.071.034 6.793-4.027 1.079.523-3.936 8.115-1.162-.563 2.881-5.94-.072-.035-6.798 4.04-1.091-.529 3.936-8.115Z" clip-path="url(#S)" style="fill:#fff;fill-opacity:1;fill-rule:nonzero;stroke:none" transform="matrix(10.18344 0 0 -10.18344 639.462 306.788)"/><path d="m0 0-3.253 8.412-1.216-.47 3.252-8.413z" clip-path="url(#T)" style="fill:#fff;fill-opacity:1;fill-rule:nonzero;stroke:none" transform="matrix(10.18344 0 0 -10.18344 724.963 268.898)"/><path d="m0 0-1.351-.402-.197-7.714-.089-.026-4.377 6.352-1.354-.404 5.532-7.763 1.451.432z" clip-path="url(#U)" style="fill:#fff;fill-opacity:1;fill-rule:nonzero;stroke:none" transform="matrix(10.18344 0 0 -10.18344 788.789 152.04)"/><path d="m0 0-.216 1.16-4.066-.757-.503 2.701 3.744.697-.216 1.157-3.744-.698-.501 2.688 4.02.75-.216 1.16L-7 7.87l1.652-8.867Z" clip-path="url(#V)" style="fill:#fff;fill-opacity:1;fill-rule:nonzero;stroke:none" transform="matrix(10.18344 0 0 -10.18344 884.99 226.844)"/><path d="M0 0q-.381-.222-1.004-.274L-2.63-.41l-.272 3.248 1.622.135q.619.052 1.036-.11.418-.161.635-.515a1.96 1.96 0 0 0 .26-.87Q.694.96.538.591A1.24 1.24 0 0 0 0 0m2.801-4.556L.606-1.081c.079.039.159.076.232.121q.64.398.916 1.052.276.652.205 1.495-.07.843-.454 1.449a2.3 2.3 0 0 1-1.079.904q-.697.298-1.666.216l-3.06-.255.752-8.988 1.3.108-.283 3.393 1.755.147q.037.004.074.009l2.024-3.25z" clip-path="url(#W)" style="fill:#fff;fill-opacity:1;fill-rule:nonzero;stroke:none" transform="matrix(10.18344 0 0 -10.18344 941.32 172.294)"/><path d="M0 0a2.5 2.5 0 0 0-.981-.163 2.6 2.6 0 0 0-.93.181 1.6 1.6 0 0 0-.665.5q-.252.33-.28.801l-1.308.026q.026-.815.416-1.418a2.6 2.6 0 0 1 1.091-.938q.7-.335 1.656-.354.994-.02 1.718.305.724.324 1.113.916.39.591.405 1.361.015.758-.337 1.282-.353.525-.888.822a5.5 5.5 0 0 1-1.194.482l-.83.245q-.672.195-1.11.509-.438.315-.423.887.008.38.225.679.218.3.612.463.393.165.909.154.49-.009.873-.172a1.44 1.44 0 0 0 .608-.463q.224-.302.258-.713L2.2 5.367a2.37 2.37 0 0 1-.372 1.296 2.55 2.55 0 0 1-1.044.911q-.672.333-1.532.35a3.6 3.6 0 0 1-1.567-.295 2.66 2.66 0 0 1-1.11-.892 2.35 2.35 0 0 1-.428-1.346q-.018-.91.549-1.506.567-.595 1.643-.925l1.005-.306q.52-.156.866-.328.345-.172.543-.434a1 1 0 0 0 .191-.636A1.25 1.25 0 0 0 .685.5 1.6 1.6 0 0 0 0 0" clip-path="url(#X)" style="fill:#fff;fill-opacity:1;fill-rule:nonzero;stroke:none" transform="matrix(10.18344 0 0 -10.18344 1025.216 206.733)"/><path d="m0 0 1.298-.128.884 8.976-1.298.128Z" clip-path="url(#Y)" style="fill:#fff;fill-opacity:1;fill-rule:nonzero;stroke:none" transform="matrix(10.18344 0 0 -10.18344 1069.403 222.074)"/><path d="m0 0 1.285-.225 1.354 7.721 2.631-.462.204 1.163-6.556 1.15-.204-1.163 2.64-.462Z" clip-path="url(#Z)" style="fill:#fff;fill-opacity:1;fill-rule:nonzero;stroke:none" transform="matrix(10.18344 0 0 -10.18344 1128.173 229.609)"/><path d="m0 0-3.278-3.315-.089.025-1.019 4.55-1.427.409 1.478-6.128-.977-3.399 1.258-.362.976 3.4L1.427-.41z" clip-path="url(#aa)" style="fill:#fff;fill-opacity:1;fill-rule:nonzero;stroke:none" transform="matrix(10.18344 0 0 -10.18344 1263.64 167.628)"/><path d="M0 0q.453.969 1.076 1.519.624.55 1.316.661.694.11 1.374-.208.675-.316 1.037-.92t.338-1.435q-.023-.83-.476-1.8-.453-.969-1.076-1.518-.624-.55-1.318-.66a2.3 2.3 0 0 0-1.372.206 2.3 2.3 0 0 0-1.039.922q-.358.602-.336 1.433Q-.453-.969 0 0m.369-5.288q1.011-.473 2.046-.334t1.93.874q.896.737 1.494 2.016.6 1.281.592 2.444-.007 1.163-.566 2.042-.56.878-1.569 1.351-1.014.475-2.048.341Q1.216 3.311.32 2.57-.575 1.83-1.174.549q-.597-1.276-.591-2.436.006-1.161.563-2.043T.369-5.288" clip-path="url(#ab)" style="fill:#fff;fill-opacity:1;fill-rule:nonzero;stroke:none" transform="matrix(10.18344 0 0 -10.18344 1327.797 240.308)"/><path d="m0 0 2.038 3.358 3.116-1.891.61 1.005-3.116 1.891 1.42 2.338 3.445-2.092.613 1.009-4.561 2.769-4.68-7.71Z" clip-path="url(#ac)" style="fill:#fff;fill-opacity:1;fill-rule:nonzero;stroke:none" transform="matrix(10.18344 0 0 -10.18344 1396.01 326.478)"/><path d="m0 0 4.981 6.053 2.063-1.697.75.911-5.14 4.229-.75-.911 2.069-1.703-4.98-6.053Z" clip-path="url(#ad)" style="fill:#fff;fill-opacity:1;fill-rule:nonzero;stroke:none" transform="matrix(10.18344 0 0 -10.18344 1502.453 401.479)"/><path d="m0 0 1.149-1.152q.438-.44.584-.864.146-.423.015-.816a1.95 1.95 0 0 0-.498-.761q-.367-.366-.751-.485a1.25 1.25 0 0 0-.798.03q-.415.149-.857.591l-1.152 1.156zm-5.554-5.538 2.411 2.403L-1.9-4.382l.056-.05-1.181-3.643 1.049-1.051 1.241 3.918c.081-.035.161-.072.243-.099a2.26 2.26 0 0 1 1.394-.022q.677.21 1.275.807.599.597.816 1.281t-.005 1.408T2.08-.42L-.088 1.754l-6.387-6.369z" clip-path="url(#ae)" style="fill:#fff;fill-opacity:1;fill-rule:nonzero;stroke:none" transform="matrix(10.18344 0 0 -10.18344 1599.078 380.88)"/><path d="m0 0 .042-.052-2.227-3.374-1.61 2.032zm-7.285-2.675 2.354.864 2.079-2.625-1.382-2.093.862-1.089L1.784.401l-.94 1.187-8.988-3.178z" clip-path="url(#af)" style="fill:#fff;fill-opacity:1;fill-rule:nonzero;stroke:none" transform="matrix(10.18344 0 0 -10.18344 1671.468 468.107)"/><path d="m0 0 5.609 3.456.042-.068-3.326-7.163.63-1.021 7.679 4.731-.678 1.1-5.621-3.463-.041.068 3.337 7.169-.636 1.032-7.679-4.73Z" clip-path="url(#ag)" style="fill:#fff;fill-opacity:1;fill-rule:nonzero;stroke:none" transform="matrix(10.18344 0 0 -10.18344 1654.193 571.826)"/><path d="M0 0q-.279-.774-.094-1.883l.175-1.036a5.4 5.4 0 0 0 .094-.921q0-.385-.146-.68a1 1 0 0 0-.483-.454 1.26 1.26 0 0 0-.793-.107q-.404.078-.753.39a2.5 2.5 0 0 0-.584.804 2.5 2.5 0 0 0-.253.913q-.031.447.15.819t.591.608l-.561 1.182q-.717-.387-1.082-1.006a2.6 2.6 0 0 1-.352-1.395q.012-.776.422-1.64.427-.899 1.041-1.401t1.316-.586 1.4.246q.684.325.996.874.312.55.338 1.161.027.612-.102 1.284l-.151.853q-.126.687-.041 1.22.087.532.605.775.343.162.708.101t.688-.34q.322-.279.543-.745.21-.442.237-.858a1.44 1.44 0 0 0-.143-.75 1.37 1.37 0 0 0-.522-.55l.541-1.14q.642.322.993.912.35.59.349 1.34-.003.751-.372 1.528a3.6 3.6 0 0 1-.963 1.27 2.67 2.67 0 0 1-1.294.595q-.703.11-1.396-.219Q.28.772 0 0" clip-path="url(#ah)" style="fill:#fff;fill-opacity:1;fill-rule:nonzero;stroke:none" transform="matrix(10.18344 0 0 -10.18344 1743.133 622.595)"/><path d="m0 0 .543-1.534q.207-.58.133-1.032a1.38 1.38 0 0 0-.38-.762 2.1 2.1 0 0 0-.8-.486 2.1 2.1 0 0 0-.929-.127q-.435.049-.783.35-.348.303-.552.879l-.545 1.538zm-7.393-2.619 2.98 1.056.589-1.661q.323-.913.906-1.418A2.45 2.45 0 0 1-1.6-5.241q.734-.095 1.535.19.801.284 1.314.819.514.535.643 1.293.128.758-.194 1.667L.673 1.622-7.829-1.39Z" clip-path="url(#ai)" style="fill:#fff;fill-opacity:1;fill-rule:nonzero;stroke:none" transform="matrix(10.18344 0 0 -10.18344 1807.87 699.59)"/><path d="M0 0q.173-.726-.075-1.385-.249-.659-.913-1.157-.664-.499-1.705-.747-1.042-.247-1.859-.102-.819.146-1.337.622a2.3 2.3 0 0 0-.691 1.202q-.175.73.074 1.387.25.656.914 1.155.664.498 1.705.747 1.041.248 1.859.102t1.336-.62T0 0m-4.187 2.982q-1.371-.325-2.276-1.053-.904-.726-1.249-1.711t-.085-2.075q.258-1.086 1.01-1.81.752-.723 1.886-.967 1.133-.243 2.508.085 1.375.327 2.281 1.056T1.135-1.78q.34.985.082 2.07Q.957 1.379.209 2.105q-.747.725-1.884.965t-2.512-.088" clip-path="url(#aj)" style="fill:#fff;fill-opacity:1;fill-rule:nonzero;stroke:none" transform="matrix(10.18344 0 0 -10.18344 1839.437 801.794)"/><path d="m0 0 .201-1.615q.076-.616-.068-1.04-.146-.423-.489-.654-.345-.23-.86-.295-.516-.064-.891.077a1.24 1.24 0 0 0-.612.514q-.236.372-.314.992l-.201 1.619zm-7.784-.968 3.379.42.217-1.748q.006-.037.013-.073l-3.167-2.153.183-1.473 3.384 2.333q.061-.119.131-.227a2.26 2.26 0 0 1 1.087-.873q.664-.25 1.503-.145t1.43.512q.59.407.86 1.115.269.707.149 1.673L1.006 1.44-7.944.327Z" clip-path="url(#ak)" style="fill:#fff;fill-opacity:1;fill-rule:nonzero;stroke:none" transform="matrix(10.18344 0 0 -10.18344 1853.759 878.896)"/><path d="m0 0-7.838-.152.026-1.304 7.837.152.052-2.671 1.18.023-.129 6.655-1.18-.023z" clip-path="url(#al)" style="fill:#fff;fill-opacity:1;fill-rule:nonzero;stroke:none" transform="matrix(10.18344 0 0 -10.18344 1861.943 977.342)"/><path d="m0 0 3.734-1.549-.005-.067-3.924-.969Zm-3.434 1.424 2.316-.96-.252-3.34-2.435-.601-.105-1.385 9.227 2.399.114 1.509-8.761 3.759z" clip-path="url(#am)" style="fill:#fff;fill-opacity:1;fill-rule:nonzero;stroke:none" transform="matrix(10.18344 0 0 -10.18344 1817.039 1049.172)"/><path d="m0 0-7.726 1.328-.221-1.286 7.726-1.328-.452-2.632 1.163-.2 1.127 6.559-1.163.2z" clip-path="url(#an)" style="fill:#fff;fill-opacity:1;fill-rule:nonzero;stroke:none" transform="matrix(10.18344 0 0 -10.18344 1850.86 1140.411)"/><path d="m0 0 8.749-2.192.317 1.265L.317 1.266Z" clip-path="url(#ao)" style="fill:#fff;fill-opacity:1;fill-rule:nonzero;stroke:none" transform="matrix(10.18344 0 0 -10.18344 1757.232 1197.79)"/><path d="M0 0a2.3 2.3 0 0 0-.803-1.13q-.561-.424-1.39-.492-.828-.066-1.84.28-1.013.345-1.627.905-.614.561-.798 1.239-.184.68.057 1.386.243.71.804 1.133.561.422 1.389.489.827.067 1.841-.279 1.013-.347 1.626-.906.613-.56.799-1.237A2.3 2.3 0 0 0 0 0m.222 3.49q-.833.81-2.17 1.267-1.334.456-2.486.325-1.154-.132-1.97-.781-.819-.648-1.18-1.708-.361-1.056-.112-2.07t1.078-1.824q.828-.811 2.165-1.268t2.493-.325q1.156.134 1.969.783.813.651 1.175 1.707.362 1.06.117 2.071Q1.056 2.68.222 3.49" clip-path="url(#ap)" style="fill:#fff;fill-opacity:1;fill-rule:nonzero;stroke:none" transform="matrix(10.18344 0 0 -10.18344 1816.187 1280.626)"/><path d="m0 0 5.944-2.842-.034-.071-7.822-1.086-.518-1.083 8.138-3.89.557 1.165L.309-4.959l.034.072 7.834 1.08.523 1.094-8.137 3.89z" clip-path="url(#aq)" style="fill:#fff;fill-opacity:1;fill-rule:nonzero;stroke:none" transform="matrix(10.18344 0 0 -10.18344 1715.035 1319.514)"/></svg>